<?xml version="1.0" encoding="UTF-8"?>
<svg xmlns="http://www.w3.org/2000/svg" xmlns:xlink="http://www.w3.org/1999/xlink" width="35px" height="36px" viewBox="0 0 35 35" version="1.1">
<g id="surface1">
<path style=" stroke:none;fill-rule:nonzero;fill:rgb(0.784314%,0.392157%,0.784314%);fill-opacity:1;" d="M 0.847656 3.898438 C 1.476562 3.960938 1.828125 4.371094 2.25 4.777344 C 2.375 4.894531 2.375 4.894531 2.5 5.011719 C 2.769531 5.265625 3.035156 5.523438 3.308594 5.78125 C 3.492188 5.957031 3.679688 6.136719 3.867188 6.316406 C 4.257812 6.6875 4.648438 7.0625 5.039062 7.4375 C 5.542969 7.917969 6.042969 8.398438 6.546875 8.871094 C 6.933594 9.238281 7.320312 9.605469 7.707031 9.976562 C 7.890625 10.152344 8.074219 10.332031 8.261719 10.507812 C 8.519531 10.753906 8.777344 11 9.035156 11.246094 C 9.113281 11.320312 9.1875 11.394531 9.269531 11.46875 C 9.480469 11.675781 9.480469 11.675781 9.777344 12.058594 C 9.757812 12.429688 9.757812 12.429688 9.632812 12.742188 C 9.457031 14.132812 9.921875 15.027344 10.796875 16.117188 C 10.992188 16.355469 11.195312 16.589844 11.398438 16.820312 C 11.617188 17.09375 11.617188 17.09375 11.617188 17.363281 C 11.714844 17.363281 11.808594 17.363281 11.902344 17.363281 C 12.117188 17.5625 12.117188 17.5625 12.34375 17.820312 C 12.421875 17.90625 12.5 17.992188 12.578125 18.082031 C 12.753906 18.316406 12.753906 18.316406 12.753906 18.589844 C 12.847656 18.589844 12.9375 18.589844 13.039062 18.589844 C 13.234375 18.78125 13.234375 18.78125 13.460938 19.054688 C 13.964844 19.625 14.515625 20.113281 15.101562 20.605469 C 15.339844 20.808594 15.574219 21.023438 15.800781 21.242188 C 16.761719 22.160156 17.882812 22.933594 18.953125 23.730469 C 19.054688 23.804688 19.152344 23.878906 19.257812 23.957031 C 20.40625 24.832031 20.40625 24.832031 21.777344 25.234375 C 21.878906 25.246094 21.984375 25.257812 22.089844 25.265625 C 22.398438 25.269531 22.398438 25.269531 22.675781 25.109375 C 22.953125 24.980469 22.953125 24.980469 23.246094 25.003906 C 23.566406 25.132812 23.742188 25.277344 23.984375 25.515625 C 24.058594 25.585938 24.128906 25.65625 24.203125 25.730469 C 24.375 25.929688 24.375 25.929688 24.375 26.203125 C 24.457031 26.238281 24.535156 26.269531 24.621094 26.308594 C 24.984375 26.5 25.230469 26.71875 25.503906 27.019531 C 25.503906 27.109375 25.503906 27.199219 25.503906 27.292969 C 25.585938 27.328125 25.671875 27.359375 25.753906 27.394531 C 26.117188 27.589844 26.367188 27.804688 26.640625 28.105469 C 26.640625 28.199219 26.640625 28.285156 26.640625 28.378906 C 26.722656 28.410156 26.800781 28.445312 26.886719 28.480469 C 27.253906 28.675781 27.496094 28.894531 27.773438 29.195312 C 27.773438 29.285156 27.773438 29.375 27.773438 29.46875 C 27.894531 29.515625 27.894531 29.515625 28.015625 29.566406 C 28.414062 29.777344 28.691406 30.042969 29.015625 30.351562 C 29.140625 30.472656 29.265625 30.59375 29.398438 30.714844 C 29.527344 30.84375 29.660156 30.96875 29.792969 31.101562 C 29.925781 31.226562 30.058594 31.351562 30.195312 31.480469 C 30.320312 31.601562 30.445312 31.722656 30.574219 31.847656 C 30.6875 31.957031 30.804688 32.070312 30.921875 32.183594 C 31.175781 32.460938 31.175781 32.460938 31.175781 32.734375 C 31.3125 32.777344 31.453125 32.820312 31.597656 32.867188 C 31.695312 33.148438 31.695312 33.148438 31.742188 33.410156 C 29.785156 34.738281 27.390625 34.828125 25.082031 34.46875 C 19.597656 33.5 14.554688 30.058594 10.71875 26.285156 C 10.476562 26.058594 10.226562 25.851562 9.964844 25.644531 C 9.199219 25.007812 8.535156 24.285156 7.859375 23.566406 C 7.671875 23.371094 7.480469 23.175781 7.292969 22.984375 C 6.238281 21.902344 5.3125 20.730469 4.390625 19.539062 C 4.296875 19.414062 4.199219 19.289062 4.097656 19.160156 C 2.128906 16.53125 -0.00390625 13.125 -0.0351562 9.808594 C -0.0351562 9.691406 -0.0351562 9.578125 -0.0390625 9.460938 C -0.0390625 9.21875 -0.0390625 8.980469 -0.0390625 8.738281 C -0.0429688 8.496094 -0.046875 8.25 -0.0507812 8.007812 C -0.0742188 6.460938 -0.0703125 5.222656 0.847656 3.898438 Z M 0.847656 3.898438 "/>
<path style=" stroke:none;fill-rule:nonzero;fill:rgb(1.176471%,0.784314%,0.784314%);fill-opacity:1;" d="M 5.527344 0.363281 C 5.890625 0.625 5.890625 0.625 6.25 0.960938 C 6.617188 1.296875 6.945312 1.589844 7.367188 1.859375 C 7.367188 1.949219 7.367188 2.039062 7.367188 2.132812 C 7.460938 2.132812 7.554688 2.132812 7.652344 2.132812 C 8.152344 2.574219 8.585938 3.0625 9.019531 3.566406 C 9.203125 3.78125 9.203125 3.78125 9.496094 3.898438 C 9.496094 3.992188 9.496094 4.078125 9.496094 4.171875 C 9.574219 4.203125 9.652344 4.234375 9.734375 4.265625 C 10.15625 4.496094 10.433594 4.789062 10.769531 5.125 C 10.898438 5.242188 11.035156 5.367188 11.167969 5.488281 C 11.480469 5.804688 11.480469 5.804688 11.480469 6.074219 C 11.597656 6.125 11.597656 6.125 11.71875 6.167969 C 12.136719 6.398438 12.390625 6.683594 12.710938 7.03125 C 12.820312 7.148438 12.933594 7.269531 13.046875 7.394531 C 13.335938 7.730469 13.445312 7.902344 13.53125 8.328125 C 13.425781 9.035156 12.984375 9.519531 12.46875 10.019531 C 12.378906 10.019531 12.28125 10.019531 12.183594 10.019531 C 12.15625 10.097656 12.128906 10.171875 12.097656 10.25 C 11.832031 10.683594 11.460938 10.933594 11.054688 11.246094 C 10.96875 11.324219 10.886719 11.40625 10.804688 11.488281 C 10.625 11.652344 10.625 11.652344 10.34375 11.652344 C 10.042969 11.394531 10.042969 11.394531 9.777344 11.109375 C 9.777344 11.015625 9.777344 10.929688 9.777344 10.835938 C 9.660156 10.789062 9.660156 10.789062 9.542969 10.742188 C 9.113281 10.511719 8.796875 10.203125 8.457031 9.871094 C 8.382812 9.800781 8.3125 9.730469 8.234375 9.660156 C 7.992188 9.429688 7.753906 9.195312 7.515625 8.960938 C 7.34375 8.796875 7.175781 8.640625 7.011719 8.476562 C 6.566406 8.054688 6.128906 7.628906 5.691406 7.203125 C 5.242188 6.769531 4.789062 6.335938 4.34375 5.90625 C 3.460938 5.054688 2.582031 4.207031 1.703125 3.355469 C 1.945312 2.847656 2.25 2.53125 2.671875 2.140625 C 3.042969 1.800781 3.386719 1.46875 3.703125 1.085938 C 4.183594 0.519531 4.777344 0.269531 5.527344 0.363281 Z M 5.527344 0.363281 "/>
<path style=" stroke:none;fill-rule:nonzero;fill:rgb(0.784314%,0.784314%,0.784314%);fill-opacity:1;" d="M 27.234375 21.445312 C 28.464844 21.753906 29.40625 22.996094 30.277344 23.839844 C 30.402344 23.960938 30.53125 24.085938 30.664062 24.210938 C 31.0625 24.59375 31.464844 24.984375 31.863281 25.371094 C 32.398438 25.882812 32.925781 26.394531 33.457031 26.90625 C 33.582031 27.027344 33.703125 27.144531 33.828125 27.265625 C 33.941406 27.375 34.050781 27.484375 34.167969 27.59375 C 34.316406 27.738281 34.316406 27.738281 34.46875 27.886719 C 34.707031 28.117188 34.707031 28.117188 35 28.242188 C 35 28.960938 35 29.679688 35 30.421875 C 34.90625 30.421875 34.8125 30.421875 34.71875 30.421875 C 34.574219 30.6875 34.574219 30.6875 34.433594 30.964844 C 34.339844 30.964844 34.246094 30.964844 34.152344 30.964844 C 34.082031 31.167969 34.082031 31.167969 34.007812 31.371094 C 33.761719 31.609375 33.761719 31.609375 33.457031 31.855469 C 33.359375 31.9375 33.261719 32.019531 33.160156 32.101562 C 32.875 32.324219 32.875 32.324219 32.449219 32.597656 C 31.519531 31.84375 30.660156 31.03125 29.804688 30.207031 C 29.664062 30.070312 29.519531 29.933594 29.378906 29.792969 C 29 29.433594 28.628906 29.074219 28.257812 28.714844 C 27.878906 28.351562 27.5 27.992188 27.121094 27.625 C 26.453125 26.984375 25.789062 26.339844 25.121094 25.699219 C 24.886719 25.476562 24.65625 25.253906 24.421875 25.035156 C 24.089844 24.710938 24.089844 24.710938 23.804688 24.300781 C 25.960938 21.566406 25.960938 21.566406 27.234375 21.445312 Z M 27.234375 21.445312 "/>
<path style=" stroke:none;fill-rule:nonzero;fill:rgb(4.705882%,3.529412%,4.705882%);fill-opacity:1;" d="M 5.527344 0.363281 C 5.78125 0.570312 5.78125 0.570312 5.953125 0.773438 C 5.859375 0.773438 5.765625 0.773438 5.667969 0.773438 C 5.667969 0.863281 5.667969 0.953125 5.667969 1.046875 C 5.054688 1.171875 4.582031 1.171875 3.96875 1.046875 C 3.96875 0.953125 3.96875 0.867188 3.96875 0.773438 C 4.90625 0.269531 4.90625 0.269531 5.527344 0.363281 Z M 5.527344 0.363281 "/>
<path style=" stroke:none;fill-rule:nonzero;fill:rgb(14.509805%,12.54902%,12.941177%);fill-opacity:1;" d="M 26.214844 21.851562 C 26.308594 21.898438 26.402344 21.941406 26.496094 21.988281 C 26.429688 22.050781 26.363281 22.113281 26.292969 22.179688 C 25.992188 22.46875 25.6875 22.761719 25.382812 23.050781 C 25.222656 23.199219 25.222656 23.199219 25.058594 23.351562 C 24.960938 23.449219 24.859375 23.546875 24.753906 23.648438 C 24.660156 23.738281 24.570312 23.824219 24.46875 23.917969 C 24.203125 24.175781 24.203125 24.175781 23.945312 24.574219 C 23.898438 24.480469 23.851562 24.394531 23.804688 24.300781 C 24.542969 23.394531 25.277344 22.570312 26.214844 21.851562 Z M 26.214844 21.851562 "/>
<path style=" stroke:none;fill-rule:nonzero;fill:rgb(6.27451%,3.921569%,4.705882%);fill-opacity:1;" d="M 0.847656 3.898438 C 1.117188 3.941406 1.117188 3.941406 1.417969 4.035156 C 1.507812 4.171875 1.601562 4.304688 1.703125 4.441406 C 1.605469 4.441406 1.511719 4.441406 1.417969 4.441406 C 1.402344 4.53125 1.386719 4.617188 1.371094 4.707031 C 1.339844 4.800781 1.308594 4.894531 1.273438 4.988281 C 1.132812 5.03125 0.996094 5.078125 0.847656 5.125 C 0.722656 4.675781 0.625 4.335938 0.847656 3.898438 Z M 0.847656 3.898438 "/>
<path style=" stroke:none;fill-rule:nonzero;fill:rgb(10.588235%,8.627451%,9.411765%);fill-opacity:1;" d="M 3.542969 1.179688 C 3.636719 1.226562 3.730469 1.269531 3.824219 1.316406 C 3.761719 1.382812 3.699219 1.457031 3.632812 1.527344 C 3.550781 1.621094 3.460938 1.710938 3.375 1.808594 C 3.285156 1.910156 3.195312 2.007812 3.101562 2.109375 C 2.875 2.359375 2.660156 2.613281 2.445312 2.871094 C 2.125 3.222656 2.125 3.222656 1.703125 3.355469 C 1.921875 2.828125 2.277344 2.507812 2.703125 2.117188 C 3.183594 1.691406 3.183594 1.691406 3.542969 1.179688 Z M 3.542969 1.179688 "/>
<path style=" stroke:none;fill-rule:nonzero;fill:rgb(9.019608%,7.843138%,7.843138%);fill-opacity:1;" d="M 19.554688 24.300781 C 19.742188 24.390625 19.929688 24.476562 20.121094 24.574219 C 19.933594 24.75 19.75 24.929688 19.554688 25.117188 C 19.460938 25.023438 19.367188 24.9375 19.273438 24.84375 C 19.363281 24.664062 19.457031 24.484375 19.554688 24.300781 Z M 19.554688 24.300781 "/>
<path style=" stroke:none;fill-rule:nonzero;fill:rgb(7.843138%,6.666667%,6.666667%);fill-opacity:1;" d="M 2.550781 5.261719 C 2.785156 5.484375 3.019531 5.707031 3.257812 5.941406 C 3.117188 5.984375 2.980469 6.03125 2.832031 6.074219 C 2.738281 6.03125 2.648438 5.988281 2.550781 5.941406 C 2.550781 5.714844 2.550781 5.492188 2.550781 5.261719 Z M 2.550781 5.261719 "/>
</g>
</svg>
