<?xml version="1.0" encoding="UTF-8"?>
<svg xmlns="http://www.w3.org/2000/svg" xmlns:xlink="http://www.w3.org/1999/xlink" width="48px" height="48px" viewBox="0 0 48 48" version="1.1">
<g id="surface1">
<path style=" stroke:none;fill-rule:evenodd;fill:rgb(0%,0%,0%);fill-opacity:1;" d="M 41.414062 9.417969 C 42.191406 8.628906 42.191406 7.363281 41.414062 6.585938 C 40.636719 5.808594 39.371094 5.808594 38.582031 6.585938 L 26.695312 18.472656 L 18.144531 6.816406 C 17.769531 6.304688 17.175781 6 16.535156 6 L 7.996094 6 C 7.246094 6 6.558594 6.421875 6.214844 7.097656 C 5.878906 7.769531 5.941406 8.574219 6.386719 9.183594 L 18.910156 26.261719 L 6.585938 38.582031 C 5.808594 39.371094 5.808594 40.636719 6.585938 41.414062 C 7.363281 42.191406 8.628906 42.191406 9.417969 41.414062 L 21.304688 29.527344 L 29.855469 41.183594 C 30.230469 41.695312 30.824219 42 31.464844 42 L 40.003906 42 C 40.753906 42 41.441406 41.578125 41.785156 40.902344 C 42.121094 40.230469 42.058594 39.425781 41.613281 38.816406 L 29.089844 21.738281 Z M 24.738281 22.570312 C 24.800781 22.675781 24.871094 22.777344 24.957031 22.871094 L 36.050781 37.996094 L 32.480469 37.996094 L 11.949219 10.003906 L 15.519531 10.003906 Z M 24.738281 22.570312 "/>
</g>
</svg>
