<?xml version="1.0" encoding="UTF-8"?>
<svg xmlns="http://www.w3.org/2000/svg" xmlns:xlink="http://www.w3.org/1999/xlink" width="36px" height="36px" viewBox="0 0 36 36" version="1.1">
<g id="surface1">
<path style=" stroke:none;fill-rule:evenodd;fill:rgb(0%,0%,0%);fill-opacity:1;" d="M 31.058594 7.0625 C 31.644531 6.472656 31.644531 5.523438 31.058594 4.941406 C 30.476562 4.355469 29.527344 4.355469 28.9375 4.941406 L 20.019531 13.855469 L 13.609375 5.113281 C 13.328125 4.730469 12.882812 4.5 12.402344 4.5 L 5.996094 4.5 C 5.433594 4.5 4.917969 4.816406 4.660156 5.324219 C 4.410156 5.828125 4.457031 6.429688 4.789062 6.886719 L 14.183594 19.695312 L 4.941406 28.9375 C 4.355469 29.527344 4.355469 30.476562 4.941406 31.058594 C 5.523438 31.644531 6.472656 31.644531 7.0625 31.058594 L 15.980469 22.144531 L 22.390625 30.886719 C 22.671875 31.269531 23.117188 31.5 23.597656 31.5 L 30.003906 31.5 C 30.566406 31.5 31.082031 31.183594 31.339844 30.675781 C 31.589844 30.171875 31.542969 29.570312 31.210938 29.113281 L 21.816406 16.304688 Z M 18.554688 16.925781 C 18.601562 17.007812 18.652344 17.082031 18.71875 17.152344 L 27.039062 28.496094 L 24.359375 28.496094 L 8.960938 7.503906 L 11.640625 7.503906 Z M 18.554688 16.925781 "/>
</g>
</svg>
